
<svg xmlns="http://www.w3.org/2000/svg">

  <symbol id="check" viewBox="0 0 24 24">
    <path stroke="currentColor" stroke-linecap="round" stroke-linejoin="round" stroke-width="2"
        d="M5 11.917 9.724 16.5 19 7.5" />
  </symbol>
  
  <symbol id="dots-vertical" viewBox="0 0 24 24">
    <path stroke="currentColor" stroke-linecap="round" stroke-width="2"
        d="M12 6h.01M12 12h.01M12 18h.01" />
  </symbol>
  
  <symbol id="download" viewBox="0 0 24 24">
    <path
                        stroke-width="2"
                        stroke-linecap="round"
                        stroke-linejoin="round"
                        d="M12 13V4M7 14H5a1 1 0 0 0-1 1v4a1 1 0 0 0 1 1h14a1 1 0 0 0 1-1v-4a1 1 0 0 0-1-1h-2m-1-5-4 5-4-5m9 8h.01"
                    />
  </symbol>
  
  <symbol id="eye-slash" viewBox="0 0 24 24">
    <path
        d="m4 15.6 3.055-3.056A4.913 4.913 0 0 1 7 12.012a5.006 5.006 0 0 1 5-5c.178.009.356.027.532.054l1.744-1.744A8.973 8.973 0 0 0 12 5.012c-5.388 0-10 5.336-10 7A6.49 6.49 0 0 0 4 15.6Z" />
    <path
        d="m14.7 10.726 4.995-5.007A.998.998 0 0 0 18.99 4a1 1 0 0 0-.71.305l-4.995 5.007a2.98 2.98 0 0 0-.588-.21l-.035-.01a2.981 2.981 0 0 0-3.584 3.583c0 .012.008.022.01.033.05.204.12.402.211.59l-4.995 4.983a1 1 0 1 0 1.414 1.414l4.995-4.983c.189.091.386.162.59.211.011 0 .021.007.033.01a2.982 2.982 0 0 0 3.584-3.584c0-.012-.008-.023-.011-.035a3.05 3.05 0 0 0-.21-.588Z" />
    <path
        d="m19.821 8.605-2.857 2.857a4.952 4.952 0 0 1-5.514 5.514l-1.785 1.785c.767.166 1.55.25 2.335.251 6.453 0 10-5.258 10-7 0-1.166-1.637-2.874-2.179-3.407Z" />
  </symbol>
  
  <symbol id="eye" viewBox="0 0 24 24">
    <path fill-rule="evenodd"
        d="M4.998 7.78C6.729 6.345 9.198 5 12 5c2.802 0 5.27 1.345 7.002 2.78a12.713 12.713 0 0 1 2.096 2.183c.253.344.465.682.618.997.14.286.284.658.284 1.04s-.145.754-.284 1.04a6.6 6.6 0 0 1-.618.997 12.712 12.712 0 0 1-2.096 2.183C17.271 17.655 14.802 19 12 19c-2.802 0-5.27-1.345-7.002-2.78a12.712 12.712 0 0 1-2.096-2.183 6.6 6.6 0 0 1-.618-.997C2.144 12.754 2 12.382 2 12s.145-.754.284-1.04c.153-.315.365-.653.618-.997A12.714 12.714 0 0 1 4.998 7.78ZM12 15a3 3 0 1 0 0-6 3 3 0 0 0 0 6Z"
        clip-rule="evenodd" />
  </symbol>
  
  <symbol id="fingerprint" viewBox="0 0 24 24">
    <path stroke="currentColor" stroke-linecap="round" stroke-linejoin="round" stroke-width="2"
        d="M21 12a28.076 28.076 0 0 1-1.091 9M7.231 4.37a8.994 8.994 0 0 1 12.88 3.73M2.958 15S3 14.577 3 12a8.949 8.949 0 0 1 1.735-5.307m12.84 3.088A5.98 5.98 0 0 1 18 12a30 30 0 0 1-.464 6.232M6 12a6 6 0 0 1 9.352-4.974M4 21a5.964 5.964 0 0 1 1.01-3.328 5.15 5.15 0 0 0 .786-1.926m8.66 2.486a13.96 13.96 0 0 1-.962 2.683M7.5 19.336C9 17.092 9 14.845 9 12a3 3 0 1 1 6 0c0 .749 0 1.521-.031 2.311M12 12c0 3 0 6-2 9" />
  </symbol>
  
  <symbol id="menu-hamburger" viewBox="0 0 24 24">
    <path
        d="M3.5625 6C3.5625 5.58579 3.89829 5.25 4.3125 5.25H20.3125C20.7267 5.25 21.0625 5.58579 21.0625 6C21.0625 6.41421 20.7267 6.75 20.3125 6.75L4.3125 6.75C3.89829 6.75 3.5625 6.41422 3.5625 6Z"
        fill="currentColor" />
    <path
        d="M3.5625 18C3.5625 17.5858 3.89829 17.25 4.3125 17.25L20.3125 17.25C20.7267 17.25 21.0625 17.5858 21.0625 18C21.0625 18.4142 20.7267 18.75 20.3125 18.75L4.3125 18.75C3.89829 18.75 3.5625 18.4142 3.5625 18Z"
        fill="currentColor" />
    <path
        d="M4.3125 11.25C3.89829 11.25 3.5625 11.5858 3.5625 12C3.5625 12.4142 3.89829 12.75 4.3125 12.75L20.3125 12.75C20.7267 12.75 21.0625 12.4142 21.0625 12C21.0625 11.5858 20.7267 11.25 20.3125 11.25L4.3125 11.25Z"
        fill="currentColor" />
  </symbol>
  
  <symbol id="plus" viewBox="0 0 24 24">
    <path
        d="M12.0002 4.875C12.6216 4.875 13.1252 5.37868 13.1252 6V10.8752H18.0007C18.622 10.8752 19.1257 11.3789 19.1257 12.0002C19.1257 12.6216 18.622 13.1252 18.0007 13.1252H13.1252V18.0007C13.1252 18.622 12.6216 19.1257 12.0002 19.1257C11.3789 19.1257 10.8752 18.622 10.8752 18.0007V13.1252H6C5.37868 13.1252 4.875 12.6216 4.875 12.0002C4.875 11.3789 5.37868 10.8752 6 10.8752H10.8752V6C10.8752 5.37868 11.3789 4.875 12.0002 4.875Z"
    />
  </symbol>
  
  <symbol id="print" viewBox="0 0 24 24">
    <path
        stroke-width="2"
        stroke-linejoin="round"
        d="M16.444 18H19a1 1 0 0 0 1-1v-5a1 1 0 0 0-1-1H5a1 1 0 0 0-1 1v5a1 1 0 0 0 1 1h2.556M17 11V5a1 1 0 0 0-1-1H8a1 1 0 0 0-1 1v6h10ZM7 15h10v4a1 1 0 0 1-1 1H8a1 1 0 0 1-1-1v-4Z"
    />
  </symbol>
  
  <symbol id="xmark-circle" viewBox="0 0 24 24">
    <path
        d="M2 12.3906C2 6.86778 6.47715 2.39062 12 2.39062C17.5228 2.39062 22 6.86778 22 12.3906C22 17.9135 17.5228 22.3906 12 22.3906C6.47715 22.3906 2 17.9135 2 12.3906ZM8.78362 10.2354L10.9388 12.3906L8.78362 14.5458C8.49073 14.8387 8.49073 15.3136 8.78362 15.6065C9.07652 15.8994 9.55139 15.8994 9.84428 15.6065L11.9995 13.4513L14.1546 15.6064C14.4475 15.8993 14.9224 15.8993 15.2153 15.6064C15.5082 15.3135 15.5082 14.8387 15.2153 14.5458L13.0602 12.3906L15.2153 10.2355C15.5082 9.94258 15.5082 9.46771 15.2153 9.17482C14.9224 8.88192 14.4475 8.88192 14.1546 9.17482L11.9995 11.33L9.84428 9.17475C9.55139 8.88186 9.07652 8.88186 8.78362 9.17475C8.49073 9.46764 8.49073 9.94251 8.78362 10.2354Z"
        fill="currentColor" />
  </symbol>
  
  <symbol id="xmark" viewBox="0 0 24 24">
    <path
        d="M5.9545 5.95548C6.39384 5.51614 7.10616 5.51614 7.5455 5.95548L11.999 10.409L16.4524 5.95561C16.8918 5.51627 17.6041 5.51627 18.0434 5.95561C18.4827 6.39495 18.4827 7.10726 18.0434 7.5466L13.59 12L18.0434 16.4534C18.4827 16.8927 18.4827 17.605 18.0434 18.0444C17.6041 18.4837 16.8918 18.4837 16.4524 18.0444L11.999 13.591L7.5455 18.0445C7.10616 18.4839 6.39384 18.4839 5.9545 18.0445C5.51517 17.6052 5.51516 16.8929 5.9545 16.4535L10.408 12L5.9545 7.54647C5.51516 7.10713 5.51517 6.39482 5.9545 5.95548Z"
        fill="currentColor" />
  </symbol>
  
</svg>
