
<svg xmlns="http://www.w3.org/2000/svg">

  <symbol id="check" viewBox="0 0 24 24">
    <path  stroke-linecap="round" stroke-linejoin="round" stroke-width="2"
        d="M5 11.917 9.724 16.5 19 7.5" />
  </symbol>
  
  <symbol id="dots-vertical" viewBox="0 0 24 24">
    <path  stroke-linecap="round" stroke-width="2"
        d="M12 6h.01M12 12h.01M12 18h.01" />
  </symbol>
  
  <symbol id="eye-slash" viewBox="0 0 24 24">
    <path
        d="m4 15.6 3.055-3.056A4.913 4.913 0 0 1 7 12.012a5.006 5.006 0 0 1 5-5c.178.009.356.027.532.054l1.744-1.744A8.973 8.973 0 0 0 12 5.012c-5.388 0-10 5.336-10 7A6.49 6.49 0 0 0 4 15.6Z" />
    <path
        d="m14.7 10.726 4.995-5.007A.998.998 0 0 0 18.99 4a1 1 0 0 0-.71.305l-4.995 5.007a2.98 2.98 0 0 0-.588-.21l-.035-.01a2.981 2.981 0 0 0-3.584 3.583c0 .012.008.022.01.033.05.204.12.402.211.59l-4.995 4.983a1 1 0 1 0 1.414 1.414l4.995-4.983c.189.091.386.162.59.211.011 0 .021.007.033.01a2.982 2.982 0 0 0 3.584-3.584c0-.012-.008-.023-.011-.035a3.05 3.05 0 0 0-.21-.588Z" />
    <path
        d="m19.821 8.605-2.857 2.857a4.952 4.952 0 0 1-5.514 5.514l-1.785 1.785c.767.166 1.55.25 2.335.251 6.453 0 10-5.258 10-7 0-1.166-1.637-2.874-2.179-3.407Z" />
  </symbol>
  
  <symbol id="eye" viewBox="0 0 24 24">
    <path fill-rule="evenodd"
        d="M4.998 7.78C6.729 6.345 9.198 5 12 5c2.802 0 5.27 1.345 7.002 2.78a12.713 12.713 0 0 1 2.096 2.183c.253.344.465.682.618.997.14.286.284.658.284 1.04s-.145.754-.284 1.04a6.6 6.6 0 0 1-.618.997 12.712 12.712 0 0 1-2.096 2.183C17.271 17.655 14.802 19 12 19c-2.802 0-5.27-1.345-7.002-2.78a12.712 12.712 0 0 1-2.096-2.183 6.6 6.6 0 0 1-.618-.997C2.144 12.754 2 12.382 2 12s.145-.754.284-1.04c.153-.315.365-.653.618-.997A12.714 12.714 0 0 1 4.998 7.78ZM12 15a3 3 0 1 0 0-6 3 3 0 0 0 0 6Z"
        clip-rule="evenodd" />
  </symbol>
  
  <symbol id="fingerprint" viewBox="0 0 24 24">
    <path  stroke-linecap="round" stroke-linejoin="round" stroke-width="2"
        d="M21 12a28.076 28.076 0 0 1-1.091 9M7.231 4.37a8.994 8.994 0 0 1 12.88 3.73M2.958 15S3 14.577 3 12a8.949 8.949 0 0 1 1.735-5.307m12.84 3.088A5.98 5.98 0 0 1 18 12a30 30 0 0 1-.464 6.232M6 12a6 6 0 0 1 9.352-4.974M4 21a5.964 5.964 0 0 1 1.01-3.328 5.15 5.15 0 0 0 .786-1.926m8.66 2.486a13.96 13.96 0 0 1-.962 2.683M7.5 19.336C9 17.092 9 14.845 9 12a3 3 0 1 1 6 0c0 .749 0 1.521-.031 2.311M12 12c0 3 0 6-2 9" />
  </symbol>
  
  <symbol id="sprite" viewBox="0 0 24 24">
    <symbol id="check" viewBox="0 0 24 24">
    <path  stroke-linecap="round" stroke-linejoin="round" stroke-width="2"
        d="M5 11.917 9.724 16.5 19 7.5" />
  </symbol>
  
  <symbol id="dots-vertical" viewBox="0 0 24 24">
    <path  stroke-linecap="round" stroke-width="2"
        d="M12 6h.01M12 12h.01M12 18h.01" />
  </symbol>
  
  <symbol id="eye-slash" viewBox="0 0 24 24">
    <path
        d="m4 15.6 3.055-3.056A4.913 4.913 0 0 1 7 12.012a5.006 5.006 0 0 1 5-5c.178.009.356.027.532.054l1.744-1.744A8.973 8.973 0 0 0 12 5.012c-5.388 0-10 5.336-10 7A6.49 6.49 0 0 0 4 15.6Z" />
    <path
        d="m14.7 10.726 4.995-5.007A.998.998 0 0 0 18.99 4a1 1 0 0 0-.71.305l-4.995 5.007a2.98 2.98 0 0 0-.588-.21l-.035-.01a2.981 2.981 0 0 0-3.584 3.583c0 .012.008.022.01.033.05.204.12.402.211.59l-4.995 4.983a1 1 0 1 0 1.414 1.414l4.995-4.983c.189.091.386.162.59.211.011 0 .021.007.033.01a2.982 2.982 0 0 0 3.584-3.584c0-.012-.008-.023-.011-.035a3.05 3.05 0 0 0-.21-.588Z" />
    <path
        d="m19.821 8.605-2.857 2.857a4.952 4.952 0 0 1-5.514 5.514l-1.785 1.785c.767.166 1.55.25 2.335.251 6.453 0 10-5.258 10-7 0-1.166-1.637-2.874-2.179-3.407Z" />
  </symbol>
  
  <symbol id="eye" viewBox="0 0 24 24">
    <path fill-rule="evenodd"
        d="M4.998 7.78C6.729 6.345 9.198 5 12 5c2.802 0 5.27 1.345 7.002 2.78a12.713 12.713 0 0 1 2.096 2.183c.253.344.465.682.618.997.14.286.284.658.284 1.04s-.145.754-.284 1.04a6.6 6.6 0 0 1-.618.997 12.712 12.712 0 0 1-2.096 2.183C17.271 17.655 14.802 19 12 19c-2.802 0-5.27-1.345-7.002-2.78a12.712 12.712 0 0 1-2.096-2.183 6.6 6.6 0 0 1-.618-.997C2.144 12.754 2 12.382 2 12s.145-.754.284-1.04c.153-.315.365-.653.618-.997A12.714 12.714 0 0 1 4.998 7.78ZM12 15a3 3 0 1 0 0-6 3 3 0 0 0 0 6Z"
        clip-rule="evenodd" />
  </symbol>
  
  <symbol id="fingerprint" viewBox="0 0 24 24">
    <path  stroke-linecap="round" stroke-linejoin="round" stroke-width="2"
        d="M21 12a28.076 28.076 0 0 1-1.091 9M7.231 4.37a8.994 8.994 0 0 1 12.88 3.73M2.958 15S3 14.577 3 12a8.949 8.949 0 0 1 1.735-5.307m12.84 3.088A5.98 5.98 0 0 1 18 12a30 30 0 0 1-.464 6.232M6 12a6 6 0 0 1 9.352-4.974M4 21a5.964 5.964 0 0 1 1.01-3.328 5.15 5.15 0 0 0 .786-1.926m8.66 2.486a13.96 13.96 0 0 1-.962 2.683M7.5 19.336C9 17.092 9 14.845 9 12a3 3 0 1 1 6 0c0 .749 0 1.521-.031 2.311M12 12c0 3 0 6-2 9" />
  </symbol>
  
  <symbol id="sprite" viewBox="0 0 24 24">
    <symbol id="check" viewBox="0 0 24 24">
    <path  stroke-linecap="round" stroke-linejoin="round" stroke-width="2"
        d="M5 11.917 9.724 16.5 19 7.5" />
  </symbol>
  
  <symbol id="dots-vertical" viewBox="0 0 24 24">
    <path  stroke-linecap="round" stroke-width="2"
        d="M12 6h.01M12 12h.01M12 18h.01" />
  </symbol>
  
  <symbol id="eye-slash" viewBox="0 0 24 24">
    <path
        d="m4 15.6 3.055-3.056A4.913 4.913 0 0 1 7 12.012a5.006 5.006 0 0 1 5-5c.178.009.356.027.532.054l1.744-1.744A8.973 8.973 0 0 0 12 5.012c-5.388 0-10 5.336-10 7A6.49 6.49 0 0 0 4 15.6Z" />
    <path
        d="m14.7 10.726 4.995-5.007A.998.998 0 0 0 18.99 4a1 1 0 0 0-.71.305l-4.995 5.007a2.98 2.98 0 0 0-.588-.21l-.035-.01a2.981 2.981 0 0 0-3.584 3.583c0 .012.008.022.01.033.05.204.12.402.211.59l-4.995 4.983a1 1 0 1 0 1.414 1.414l4.995-4.983c.189.091.386.162.59.211.011 0 .021.007.033.01a2.982 2.982 0 0 0 3.584-3.584c0-.012-.008-.023-.011-.035a3.05 3.05 0 0 0-.21-.588Z" />
    <path
        d="m19.821 8.605-2.857 2.857a4.952 4.952 0 0 1-5.514 5.514l-1.785 1.785c.767.166 1.55.25 2.335.251 6.453 0 10-5.258 10-7 0-1.166-1.637-2.874-2.179-3.407Z" />
  </symbol>
  
  <symbol id="eye" viewBox="0 0 24 24">
    <path fill-rule="evenodd"
        d="M4.998 7.78C6.729 6.345 9.198 5 12 5c2.802 0 5.27 1.345 7.002 2.78a12.713 12.713 0 0 1 2.096 2.183c.253.344.465.682.618.997.14.286.284.658.284 1.04s-.145.754-.284 1.04a6.6 6.6 0 0 1-.618.997 12.712 12.712 0 0 1-2.096 2.183C17.271 17.655 14.802 19 12 19c-2.802 0-5.27-1.345-7.002-2.78a12.712 12.712 0 0 1-2.096-2.183 6.6 6.6 0 0 1-.618-.997C2.144 12.754 2 12.382 2 12s.145-.754.284-1.04c.153-.315.365-.653.618-.997A12.714 12.714 0 0 1 4.998 7.78ZM12 15a3 3 0 1 0 0-6 3 3 0 0 0 0 6Z"
        clip-rule="evenodd" />
  </symbol>
  
  <symbol id="fingerprint" viewBox="0 0 24 24">
    <path  stroke-linecap="round" stroke-linejoin="round" stroke-width="2"
        d="M21 12a28.076 28.076 0 0 1-1.091 9M7.231 4.37a8.994 8.994 0 0 1 12.88 3.73M2.958 15S3 14.577 3 12a8.949 8.949 0 0 1 1.735-5.307m12.84 3.088A5.98 5.98 0 0 1 18 12a30 30 0 0 1-.464 6.232M6 12a6 6 0 0 1 9.352-4.974M4 21a5.964 5.964 0 0 1 1.01-3.328 5.15 5.15 0 0 0 .786-1.926m8.66 2.486a13.96 13.96 0 0 1-.962 2.683M7.5 19.336C9 17.092 9 14.845 9 12a3 3 0 1 1 6 0c0 .749 0 1.521-.031 2.311M12 12c0 3 0 6-2 9" />
  </symbol>
  
  <symbol id="sprite" viewBox="0 0 24 24">
    <symbol id="dots-vertical" viewBox="0 0 24 24">
    <path  stroke-linecap="round" stroke-width="2"
        d="M12 6h.01M12 12h.01M12 18h.01" />
  </symbol>
  
  <symbol id="eye-slash" viewBox="0 0 24 24">
    <path
        d="m4 15.6 3.055-3.056A4.913 4.913 0 0 1 7 12.012a5.006 5.006 0 0 1 5-5c.178.009.356.027.532.054l1.744-1.744A8.973 8.973 0 0 0 12 5.012c-5.388 0-10 5.336-10 7A6.49 6.49 0 0 0 4 15.6Z" />
    <path
        d="m14.7 10.726 4.995-5.007A.998.998 0 0 0 18.99 4a1 1 0 0 0-.71.305l-4.995 5.007a2.98 2.98 0 0 0-.588-.21l-.035-.01a2.981 2.981 0 0 0-3.584 3.583c0 .012.008.022.01.033.05.204.12.402.211.59l-4.995 4.983a1 1 0 1 0 1.414 1.414l4.995-4.983c.189.091.386.162.59.211.011 0 .021.007.033.01a2.982 2.982 0 0 0 3.584-3.584c0-.012-.008-.023-.011-.035a3.05 3.05 0 0 0-.21-.588Z" />
    <path
        d="m19.821 8.605-2.857 2.857a4.952 4.952 0 0 1-5.514 5.514l-1.785 1.785c.767.166 1.55.25 2.335.251 6.453 0 10-5.258 10-7 0-1.166-1.637-2.874-2.179-3.407Z" />
  </symbol>
  
  <symbol id="eye" viewBox="0 0 24 24">
    <path fill-rule="evenodd"
        d="M4.998 7.78C6.729 6.345 9.198 5 12 5c2.802 0 5.27 1.345 7.002 2.78a12.713 12.713 0 0 1 2.096 2.183c.253.344.465.682.618.997.14.286.284.658.284 1.04s-.145.754-.284 1.04a6.6 6.6 0 0 1-.618.997 12.712 12.712 0 0 1-2.096 2.183C17.271 17.655 14.802 19 12 19c-2.802 0-5.27-1.345-7.002-2.78a12.712 12.712 0 0 1-2.096-2.183 6.6 6.6 0 0 1-.618-.997C2.144 12.754 2 12.382 2 12s.145-.754.284-1.04c.153-.315.365-.653.618-.997A12.714 12.714 0 0 1 4.998 7.78ZM12 15a3 3 0 1 0 0-6 3 3 0 0 0 0 6Z"
        clip-rule="evenodd" />
  </symbol>
  
  <symbol id="fingerprint" viewBox="0 0 24 24">
    <path  stroke-linecap="round" stroke-linejoin="round" stroke-width="2"
        d="M21 12a28.076 28.076 0 0 1-1.091 9M7.231 4.37a8.994 8.994 0 0 1 12.88 3.73M2.958 15S3 14.577 3 12a8.949 8.949 0 0 1 1.735-5.307m12.84 3.088A5.98 5.98 0 0 1 18 12a30 30 0 0 1-.464 6.232M6 12a6 6 0 0 1 9.352-4.974M4 21a5.964 5.964 0 0 1 1.01-3.328 5.15 5.15 0 0 0 .786-1.926m8.66 2.486a13.96 13.96 0 0 1-.962 2.683M7.5 19.336C9 17.092 9 14.845 9 12a3 3 0 1 1 6 0c0 .749 0 1.521-.031 2.311M12 12c0 3 0 6-2 9" />
  </symbol>
  
  <symbol id="sprite" viewBox="0 0 24 24">
    <symbol id="dots-vertical" viewBox="0 0 24 24">
    <path  stroke-linecap="round" stroke-width="2"
        d="M12 6h.01M12 12h.01M12 18h.01" />
  </symbol>
  
  <symbol id="eye-slash" viewBox="0 0 24 24">
    <path
        d="m4 15.6 3.055-3.056A4.913 4.913 0 0 1 7 12.012a5.006 5.006 0 0 1 5-5c.178.009.356.027.532.054l1.744-1.744A8.973 8.973 0 0 0 12 5.012c-5.388 0-10 5.336-10 7A6.49 6.49 0 0 0 4 15.6Z" />
    <path
        d="m14.7 10.726 4.995-5.007A.998.998 0 0 0 18.99 4a1 1 0 0 0-.71.305l-4.995 5.007a2.98 2.98 0 0 0-.588-.21l-.035-.01a2.981 2.981 0 0 0-3.584 3.583c0 .012.008.022.01.033.05.204.12.402.211.59l-4.995 4.983a1 1 0 1 0 1.414 1.414l4.995-4.983c.189.091.386.162.59.211.011 0 .021.007.033.01a2.982 2.982 0 0 0 3.584-3.584c0-.012-.008-.023-.011-.035a3.05 3.05 0 0 0-.21-.588Z" />
    <path
        d="m19.821 8.605-2.857 2.857a4.952 4.952 0 0 1-5.514 5.514l-1.785 1.785c.767.166 1.55.25 2.335.251 6.453 0 10-5.258 10-7 0-1.166-1.637-2.874-2.179-3.407Z" />
  </symbol>
  
  <symbol id="eye" viewBox="0 0 24 24">
    <path fill-rule="evenodd"
        d="M4.998 7.78C6.729 6.345 9.198 5 12 5c2.802 0 5.27 1.345 7.002 2.78a12.713 12.713 0 0 1 2.096 2.183c.253.344.465.682.618.997.14.286.284.658.284 1.04s-.145.754-.284 1.04a6.6 6.6 0 0 1-.618.997 12.712 12.712 0 0 1-2.096 2.183C17.271 17.655 14.802 19 12 19c-2.802 0-5.27-1.345-7.002-2.78a12.712 12.712 0 0 1-2.096-2.183 6.6 6.6 0 0 1-.618-.997C2.144 12.754 2 12.382 2 12s.145-.754.284-1.04c.153-.315.365-.653.618-.997A12.714 12.714 0 0 1 4.998 7.78ZM12 15a3 3 0 1 0 0-6 3 3 0 0 0 0 6Z"
        clip-rule="evenodd" />
  </symbol>
  
  <symbol id="sprite" viewBox="0 0 24 24">
    
  </symbol>
  </symbol>
  </symbol>
  </symbol>
  
  <symbol id="xmark-circle" viewBox="0 0 24 24">
    <path  stroke-linecap="round" stroke-linejoin="round" stroke-width="2"
        d="M5 11.917 9.724 16.5 19 7.5" />
  </symbol>
  
  <symbol id="xmark" viewBox="0 0 24 24">
    <path  stroke-linecap="round" stroke-linejoin="round" stroke-width="2"
        d="M5 11.917 9.724 16.5 19 7.5" />
  </symbol>
  </symbol>
  
  <symbol id="xmark-circle" viewBox="0 0 24 24">
    <path  stroke-linecap="round" stroke-linejoin="round" stroke-width="2"
        d="M5 11.917 9.724 16.5 19 7.5" />
  </symbol>
  
  <symbol id="xmark" viewBox="0 0 24 24">
    <path  stroke-linecap="round" stroke-linejoin="round" stroke-width="2"
        d="M5 11.917 9.724 16.5 19 7.5" />
  </symbol>
  
</svg>
